<svg width="207" height="31" viewBox="0 0 207 31" fill="none" xmlns="http://www.w3.org/2000/svg">
<path d="M142.419 24.3072C139.706 24.3072 137.461 23.4112 135.686 21.6192C133.911 19.8272 133.024 17.6341 133.024 15.04C133.024 12.4459 133.911 10.2528 135.686 8.4608C137.461 6.6688 139.706 5.7728 142.419 5.7728C144.075 5.7728 145.594 6.17386 146.976 6.976C148.358 7.76106 149.425 8.82773 150.176 10.176L148.589 11.0976C148.026 10.0053 147.189 9.13493 146.08 8.4864C144.971 7.83786 143.75 7.5136 142.419 7.5136C140.183 7.5136 138.357 8.23893 136.941 9.6896C135.524 11.1403 134.816 12.9237 134.816 15.04C134.816 17.1563 135.524 18.9397 136.941 20.3904C138.357 21.8411 140.183 22.5664 142.419 22.5664C143.75 22.5664 144.971 22.2421 146.08 21.5936C147.189 20.9451 148.026 20.0747 148.589 18.9824L150.176 19.8784C149.442 21.2267 148.375 22.3019 146.976 23.104C145.594 23.9061 144.075 24.3072 142.419 24.3072ZM158.345 10.8928C159.898 10.8928 161.119 11.3707 162.006 12.3264C162.911 13.2651 163.363 14.5365 163.363 16.1408V24H161.673V16.1408C161.673 14.9973 161.366 14.1099 160.752 13.4784C160.154 12.8469 159.301 12.5312 158.192 12.5312C156.963 12.5312 155.965 12.9237 155.197 13.7088C154.429 14.4768 154.045 15.6715 154.045 17.2928V24H152.355V6.08H154.045V13.1968C155 11.6608 156.434 10.8928 158.345 10.8928ZM177.126 11.2H178.816V24H177.126V21.4912C175.948 23.3685 174.225 24.3072 171.955 24.3072C170.129 24.3072 168.567 23.6587 167.27 22.3616C165.99 21.0645 165.35 19.4773 165.35 17.6C165.35 15.7227 165.99 14.1355 167.27 12.8384C168.567 11.5413 170.129 10.8928 171.955 10.8928C174.225 10.8928 175.948 11.8315 177.126 13.7088V11.2ZM168.499 21.2096C169.472 22.1824 170.666 22.6688 172.083 22.6688C173.499 22.6688 174.694 22.1824 175.667 21.2096C176.64 20.2197 177.126 19.0165 177.126 17.6C177.126 16.1835 176.64 14.9888 175.667 14.016C174.694 13.0261 173.499 12.5312 172.083 12.5312C170.666 12.5312 169.472 13.0261 168.499 14.016C167.526 14.9888 167.04 16.1835 167.04 17.6C167.04 19.0165 167.526 20.2197 168.499 21.2096ZM192.607 22.3872C191.31 23.6672 189.723 24.3072 187.846 24.3072C185.968 24.3072 184.373 23.6672 183.059 22.3872C181.762 21.0901 181.113 19.4944 181.113 17.6C181.113 15.7056 181.762 14.1184 183.059 12.8384C184.373 11.5413 185.968 10.8928 187.846 10.8928C189.723 10.8928 191.31 11.5413 192.607 12.8384C193.922 14.1184 194.579 15.7056 194.579 17.6C194.579 19.4944 193.922 21.0901 192.607 22.3872ZM184.262 21.2096C185.235 22.1824 186.429 22.6688 187.846 22.6688C189.262 22.6688 190.457 22.1824 191.43 21.2096C192.403 20.2197 192.889 19.0165 192.889 17.6C192.889 16.1835 192.403 14.9888 191.43 14.016C190.457 13.0261 189.262 12.5312 187.846 12.5312C186.429 12.5312 185.235 13.0261 184.262 14.016C183.289 14.9888 182.803 16.1835 182.803 17.6C182.803 19.0165 183.289 20.2197 184.262 21.2096ZM197.975 14.5536C197.975 15.1339 198.231 15.5947 198.743 15.936C199.255 16.2773 199.878 16.5419 200.612 16.7296C201.346 16.9173 202.08 17.1307 202.814 17.3696C203.547 17.5915 204.17 17.9755 204.682 18.5216C205.194 19.0507 205.45 19.7504 205.45 20.6208C205.45 21.7131 205.015 22.6005 204.145 23.2832C203.291 23.9659 202.182 24.3072 200.817 24.3072C199.588 24.3072 198.538 24.0341 197.668 23.488C196.815 22.9419 196.217 22.2336 195.876 21.3632L197.31 20.5184C197.549 21.184 197.975 21.7131 198.59 22.1056C199.221 22.4811 199.963 22.6688 200.817 22.6688C201.653 22.6688 202.353 22.5067 202.916 22.1824C203.479 21.8411 203.761 21.3205 203.761 20.6208C203.761 20.0405 203.505 19.5797 202.993 19.2384C202.481 18.8971 201.858 18.6325 201.124 18.4448C200.39 18.2571 199.656 18.0523 198.922 17.8304C198.189 17.5915 197.566 17.2075 197.054 16.6784C196.542 16.1323 196.286 15.424 196.286 14.5536C196.286 13.5125 196.695 12.6421 197.514 11.9424C198.351 11.2427 199.4 10.8928 200.663 10.8928C201.704 10.8928 202.617 11.1317 203.402 11.6096C204.187 12.0704 204.768 12.7019 205.143 13.504L203.735 14.3232C203.24 13.1285 202.216 12.5312 200.663 12.5312C199.929 12.5312 199.298 12.7104 198.769 13.0688C198.24 13.4101 197.975 13.9051 197.975 14.5536Z" fill="white"/>
<rect x="13.1549" y="3.00732" width="4.13418" height="18.6038" transform="rotate(45 13.1549 3.00732)" fill="white"/>
<rect x="0.000335693" y="16.1621" width="4.13418" height="18.6038" transform="rotate(-45 0.000335693 16.1621)" fill="white"/>
<path fill-rule="evenodd" clip-rule="evenodd" d="M22.9935 30.3285L8.82925 16.1642L22.9935 2L24.1729 3.17939L21.4218 5.93044L31.6534 16.162L21.4218 26.3936L24.1751 29.1469L22.9935 30.3285Z" fill="white"/>
<path d="M26.9516 3.00708L24.0283 5.93039L37.1832 19.0853L40.1065 16.162L26.9516 3.00708Z" fill="white"/>
<path d="M40.1065 16.162L37.1832 13.2387L24.0283 26.3935L26.9516 29.3168L40.1065 16.162Z" fill="white"/>
<path d="M62.6672 24H58.5968L52.1968 15.6032V24H48.664V6.08H52.1968V13.9904L58.3408 6.08H62.4112L55.7808 14.784L62.6672 24ZM71.6964 11.2H74.9988V24H71.6964V22.5664C70.8943 23.7611 69.6228 24.3584 67.882 24.3584C66.4825 24.3584 65.322 23.8891 64.4004 22.9504C63.4959 22.0117 63.0436 20.7147 63.0436 19.0592V11.2H66.346V18.6496C66.346 19.5029 66.5764 20.16 67.0372 20.6208C67.498 21.0645 68.1124 21.2864 68.8804 21.2864C69.7337 21.2864 70.4164 21.0219 70.9284 20.4928C71.4404 19.9637 71.6964 19.1701 71.6964 18.112V11.2ZM84.961 10.8416C86.6847 10.8416 88.1525 11.4987 89.3642 12.8128C90.593 14.1099 91.2074 15.7056 91.2074 17.6C91.2074 19.4944 90.593 21.0987 89.3642 22.4128C88.1525 23.7099 86.6847 24.3584 84.961 24.3584C83.169 24.3584 81.7866 23.7355 80.8138 22.4896V24H77.5114V6.08H80.8138V12.7104C81.7866 11.4645 83.169 10.8416 84.961 10.8416ZM81.8122 20.2112C82.4778 20.8768 83.3226 21.2096 84.3466 21.2096C85.3706 21.2096 86.2154 20.8768 86.881 20.2112C87.5637 19.5285 87.905 18.6581 87.905 17.6C87.905 16.5419 87.5637 15.68 86.881 15.0144C86.2154 14.3317 85.3706 13.9904 84.3466 13.9904C83.3226 13.9904 82.4778 14.3317 81.8122 15.0144C81.1466 15.68 80.8138 16.5419 80.8138 17.6C80.8138 18.6581 81.1466 19.5285 81.8122 20.2112ZM95.8148 18.9568C96.2585 20.5611 97.4617 21.3632 99.4244 21.3632C100.687 21.3632 101.643 20.9365 102.292 20.0832L104.954 21.6192C103.691 23.4453 101.831 24.3584 99.3732 24.3584C97.2569 24.3584 95.5588 23.7184 94.2788 22.4384C92.9988 21.1584 92.3588 19.5456 92.3588 17.6C92.3588 15.6715 92.9903 14.0672 94.2532 12.7872C95.5161 11.4901 97.1375 10.8416 99.1172 10.8416C100.995 10.8416 102.539 11.4901 103.751 12.7872C104.98 14.0843 105.594 15.6885 105.594 17.6C105.594 18.0267 105.551 18.4789 105.466 18.9568H95.8148ZM95.7636 16.3968H102.292C102.104 15.5264 101.711 14.8779 101.114 14.4512C100.534 14.0245 99.8681 13.8112 99.1172 13.8112C98.2297 13.8112 97.4959 14.0416 96.9156 14.5024C96.3353 14.9461 95.9513 15.5776 95.7636 16.3968ZM110.69 13.4016C110.997 12.5824 111.5 11.968 112.2 11.5584C112.917 11.1488 113.711 10.944 114.581 10.944V14.6304C113.574 14.5109 112.67 14.7157 111.867 15.2448C111.082 15.7739 110.69 16.6528 110.69 17.8816V24H107.387V11.2H110.69V13.4016ZM125.253 11.2H128.556V24H125.253V22.4896C124.264 23.7355 122.873 24.3584 121.081 24.3584C119.374 24.3584 117.906 23.7099 116.677 22.4128C115.466 21.0987 114.86 19.4944 114.86 17.6C114.86 15.7056 115.466 14.1099 116.677 12.8128C117.906 11.4987 119.374 10.8416 121.081 10.8416C122.873 10.8416 124.264 11.4645 125.253 12.7104V11.2ZM119.161 20.2112C119.826 20.8768 120.671 21.2096 121.695 21.2096C122.719 21.2096 123.564 20.8768 124.229 20.2112C124.912 19.5285 125.253 18.6581 125.253 17.6C125.253 16.5419 124.912 15.68 124.229 15.0144C123.564 14.3317 122.719 13.9904 121.695 13.9904C120.671 13.9904 119.826 14.3317 119.161 15.0144C118.495 15.68 118.162 16.5419 118.162 17.6C118.162 18.6581 118.495 19.5285 119.161 20.2112Z" fill="white"/>
</svg>
