<svg width="198" height="31" viewBox="0 0 198 31" fill="none" xmlns="http://www.w3.org/2000/svg">
<rect x="13.1549" y="3.00732" width="4.13418" height="18.6038" transform="rotate(45 13.1549 3.00732)" fill="black"/>
<rect x="0.000340939" y="16.1621" width="4.13418" height="18.6038" transform="rotate(-45 0.000340939 16.1621)" fill="black"/>
<path fill-rule="evenodd" clip-rule="evenodd" d="M22.9935 30.3285L8.82925 16.1642L22.9935 2L24.1729 3.17939L21.4218 5.93044L31.6534 16.162L21.4218 26.3936L24.1751 29.1469L22.9935 30.3285Z" fill="black"/>
<path d="M26.9516 3.00708L24.0283 5.93039L37.1832 19.0853L40.1065 16.162L26.9516 3.00708Z" fill="black"/>
<path d="M40.1065 16.162L37.1832 13.2387L24.0283 26.3935L26.9516 29.3168L40.1065 16.162Z" fill="black"/>
<path d="M140.448 6.08C142.052 6.08 143.392 6.6176 144.467 7.6928C145.542 8.768 146.08 10.1077 146.08 11.712C146.08 13.3163 145.542 14.656 144.467 15.7312C143.392 16.8064 142.052 17.344 140.448 17.344H135.84V24H134.048V6.08H140.448ZM140.448 15.6544C141.557 15.6544 142.47 15.2875 143.187 14.5536C143.921 13.8027 144.288 12.8555 144.288 11.712C144.288 10.5685 143.921 9.62986 143.187 8.896C142.47 8.14506 141.557 7.7696 140.448 7.7696H135.84V15.6544H140.448ZM158.081 22.3872C156.784 23.6672 155.197 24.3072 153.32 24.3072C151.442 24.3072 149.847 23.6672 148.533 22.3872C147.236 21.0901 146.587 19.4944 146.587 17.6C146.587 15.7056 147.236 14.1184 148.533 12.8384C149.847 11.5413 151.442 10.8928 153.32 10.8928C155.197 10.8928 156.784 11.5413 158.081 12.8384C159.396 14.1184 160.053 15.7056 160.053 17.6C160.053 19.4944 159.396 21.0901 158.081 22.3872ZM149.736 21.2096C150.709 22.1824 151.903 22.6688 153.32 22.6688C154.736 22.6688 155.931 22.1824 156.904 21.2096C157.877 20.2197 158.363 19.0165 158.363 17.6C158.363 16.1835 157.877 14.9888 156.904 14.016C155.931 13.0261 154.736 12.5312 153.32 12.5312C151.903 12.5312 150.709 13.0261 149.736 14.016C148.763 14.9888 148.277 16.1835 148.277 17.6C148.277 19.0165 148.763 20.2197 149.736 21.2096ZM164.058 13.3248C164.843 11.7717 166.191 10.9952 168.102 10.9952V12.6336C166.942 12.6336 165.978 12.9749 165.21 13.6576C164.442 14.3403 164.058 15.4155 164.058 16.8832V24H162.368V11.2H164.058V13.3248ZM176.94 12.8384H173.254V20.5952C173.254 21.2949 173.39 21.7984 173.663 22.1056C173.936 22.3957 174.346 22.5493 174.892 22.5664C175.438 22.5664 176.121 22.5493 176.94 22.5152V24C175.148 24.2731 173.8 24.1451 172.895 23.616C172.008 23.0869 171.564 22.08 171.564 20.5952V12.8384H168.876V11.2H171.564V8.128L173.254 7.616V11.2H176.94V12.8384ZM189.477 11.2H191.167V24H189.477V21.4912C188.299 23.3685 186.576 24.3072 184.306 24.3072C182.48 24.3072 180.918 23.6587 179.621 22.3616C178.341 21.0645 177.701 19.4773 177.701 17.6C177.701 15.7227 178.341 14.1355 179.621 12.8384C180.918 11.5413 182.48 10.8928 184.306 10.8928C186.576 10.8928 188.299 11.8315 189.477 13.7088V11.2ZM180.85 21.2096C181.823 22.1824 183.017 22.6688 184.434 22.6688C185.85 22.6688 187.045 22.1824 188.018 21.2096C188.991 20.2197 189.477 19.0165 189.477 17.6C189.477 16.1835 188.991 14.9888 188.018 14.016C187.045 13.0261 185.85 12.5312 184.434 12.5312C183.017 12.5312 181.823 13.0261 180.85 14.016C179.877 14.9888 179.391 16.1835 179.391 17.6C179.391 19.0165 179.877 20.2197 180.85 21.2096ZM194.232 24V5.312H195.922V24H194.232Z" fill="black"/>
<path d="M62.6672 24H58.5968L52.1968 15.6032V24H48.664V6.08H52.1968V13.9904L58.3408 6.08H62.4112L55.7808 14.784L62.6672 24ZM71.6964 11.2H74.9988V24H71.6964V22.5664C70.8943 23.7611 69.6228 24.3584 67.882 24.3584C66.4825 24.3584 65.322 23.8891 64.4004 22.9504C63.4959 22.0117 63.0436 20.7147 63.0436 19.0592V11.2H66.346V18.6496C66.346 19.5029 66.5764 20.16 67.0372 20.6208C67.498 21.0645 68.1124 21.2864 68.8804 21.2864C69.7337 21.2864 70.4164 21.0219 70.9284 20.4928C71.4404 19.9637 71.6964 19.1701 71.6964 18.112V11.2ZM84.961 10.8416C86.6847 10.8416 88.1525 11.4987 89.3642 12.8128C90.593 14.1099 91.2074 15.7056 91.2074 17.6C91.2074 19.4944 90.593 21.0987 89.3642 22.4128C88.1525 23.7099 86.6847 24.3584 84.961 24.3584C83.169 24.3584 81.7866 23.7355 80.8138 22.4896V24H77.5114V6.08H80.8138V12.7104C81.7866 11.4645 83.169 10.8416 84.961 10.8416ZM81.8122 20.2112C82.4778 20.8768 83.3226 21.2096 84.3466 21.2096C85.3706 21.2096 86.2154 20.8768 86.881 20.2112C87.5637 19.5285 87.905 18.6581 87.905 17.6C87.905 16.5419 87.5637 15.68 86.881 15.0144C86.2154 14.3317 85.3706 13.9904 84.3466 13.9904C83.3226 13.9904 82.4778 14.3317 81.8122 15.0144C81.1466 15.68 80.8138 16.5419 80.8138 17.6C80.8138 18.6581 81.1466 19.5285 81.8122 20.2112ZM95.8148 18.9568C96.2585 20.5611 97.4617 21.3632 99.4244 21.3632C100.687 21.3632 101.643 20.9365 102.292 20.0832L104.954 21.6192C103.691 23.4453 101.831 24.3584 99.3732 24.3584C97.2569 24.3584 95.5588 23.7184 94.2788 22.4384C92.9988 21.1584 92.3588 19.5456 92.3588 17.6C92.3588 15.6715 92.9903 14.0672 94.2532 12.7872C95.5161 11.4901 97.1375 10.8416 99.1172 10.8416C100.995 10.8416 102.539 11.4901 103.751 12.7872C104.98 14.0843 105.594 15.6885 105.594 17.6C105.594 18.0267 105.551 18.4789 105.466 18.9568H95.8148ZM95.7636 16.3968H102.292C102.104 15.5264 101.711 14.8779 101.114 14.4512C100.534 14.0245 99.8681 13.8112 99.1172 13.8112C98.2297 13.8112 97.4959 14.0416 96.9156 14.5024C96.3353 14.9461 95.9513 15.5776 95.7636 16.3968ZM110.69 13.4016C110.997 12.5824 111.5 11.968 112.2 11.5584C112.917 11.1488 113.711 10.944 114.581 10.944V14.6304C113.574 14.5109 112.67 14.7157 111.867 15.2448C111.082 15.7739 110.69 16.6528 110.69 17.8816V24H107.387V11.2H110.69V13.4016ZM125.253 11.2H128.556V24H125.253V22.4896C124.264 23.7355 122.873 24.3584 121.081 24.3584C119.374 24.3584 117.906 23.7099 116.677 22.4128C115.466 21.0987 114.86 19.4944 114.86 17.6C114.86 15.7056 115.466 14.1099 116.677 12.8128C117.906 11.4987 119.374 10.8416 121.081 10.8416C122.873 10.8416 124.264 11.4645 125.253 12.7104V11.2ZM119.161 20.2112C119.826 20.8768 120.671 21.2096 121.695 21.2096C122.719 21.2096 123.564 20.8768 124.229 20.2112C124.912 19.5285 125.253 18.6581 125.253 17.6C125.253 16.5419 124.912 15.68 124.229 15.0144C123.564 14.3317 122.719 13.9904 121.695 13.9904C120.671 13.9904 119.826 14.3317 119.161 15.0144C118.495 15.68 118.162 16.5419 118.162 17.6C118.162 18.6581 118.495 19.5285 119.161 20.2112Z" fill="black"/>
</svg>
