<svg width="131" height="31" viewBox="0 0 131 31" fill="none" xmlns="http://www.w3.org/2000/svg">
<rect x="13.0462" y="2.10437" width="4.10003" height="18.4502" transform="rotate(45 13.0462 2.10437)" fill="white"/>
<rect x="0.000335693" y="15.1506" width="4.10003" height="18.4502" transform="rotate(-45 0.000335693 15.1506)" fill="white"/>
<path fill-rule="evenodd" clip-rule="evenodd" d="M22.8036 29.1995L8.75632 15.1522L22.8036 1.10498L23.9732 2.27461L21.2449 5.00294L31.392 15.15L21.2449 25.2971L23.9754 28.0276L22.8036 29.1995Z" fill="white"/>
<path d="M26.729 2.10388L23.8299 5.00304L36.8761 18.0493L39.7753 15.1501L26.729 2.10388Z" fill="white"/>
<path d="M39.7753 15.1501L36.8761 12.251L23.8299 25.2972L26.729 28.1964L39.7753 15.1501Z" fill="white"/>
<path d="M62.457 24H58.383L51.9772 15.5956V24H48.4412V6.06386H51.9772V13.9814L58.1267 6.06386H62.2008L55.5644 14.7757L62.457 24ZM71.4944 11.1885H74.7997V24H71.4944V22.5651C70.6915 23.7609 69.4189 24.3587 67.6765 24.3587C66.2758 24.3587 65.1142 23.889 64.1918 22.9495C63.2864 22.0099 62.8338 20.7117 62.8338 19.0548V11.1885H66.1391V18.6448C66.1391 19.4989 66.3698 20.1565 66.831 20.6178C67.2922 21.0619 67.9071 21.284 68.6758 21.284C69.5299 21.284 70.2132 21.0192 70.7257 20.4896C71.2381 19.9601 71.4944 19.1658 71.4944 18.1067V11.1885ZM84.7709 10.8298C86.4962 10.8298 87.9652 11.4874 89.1781 12.8027C90.408 14.101 91.0229 15.6981 91.0229 17.5942C91.0229 19.4903 90.408 21.0961 89.1781 22.4114C87.9652 23.7096 86.4962 24.3587 84.7709 24.3587C82.9773 24.3587 81.5936 23.7352 80.62 22.4882V24H77.3146V6.06386H80.62V12.7002C81.5936 11.4532 82.9773 10.8298 84.7709 10.8298ZM81.6193 20.2078C82.2855 20.874 83.131 21.2071 84.156 21.2071C85.1809 21.2071 86.0264 20.874 86.6926 20.2078C87.3759 19.5245 87.7176 18.6533 87.7176 17.5942C87.7176 16.5352 87.3759 15.6725 86.6926 15.0063C86.0264 14.323 85.1809 13.9814 84.156 13.9814C83.131 13.9814 82.2855 14.323 81.6193 15.0063C80.9531 15.6725 80.62 16.5352 80.62 17.5942C80.62 18.6533 80.9531 19.5245 81.6193 20.2078ZM95.6345 18.9523C96.0786 20.558 97.2829 21.3608 99.2473 21.3608C100.511 21.3608 101.468 20.9338 102.117 20.0797L104.782 21.6171C103.518 23.4448 101.656 24.3587 99.1961 24.3587C97.0779 24.3587 95.3782 23.7181 94.0971 22.437C92.8159 21.1558 92.1754 19.5416 92.1754 17.5942C92.1754 15.664 92.8074 14.0583 94.0715 12.7771C95.3355 11.4789 96.9583 10.8298 98.9399 10.8298C100.819 10.8298 102.365 11.4789 103.578 12.7771C104.808 14.0753 105.422 15.681 105.422 17.5942C105.422 18.0213 105.38 18.474 105.294 18.9523H95.6345ZM95.5832 16.39H102.117C101.929 15.5188 101.536 14.8697 100.938 14.4426C100.358 14.0156 99.6915 13.802 98.9399 13.802C98.0516 13.802 97.3171 14.0326 96.7363 14.4938C96.1555 14.938 95.7711 15.57 95.5832 16.39ZM110.523 13.3921C110.83 12.5721 111.334 11.9572 112.035 11.5472C112.752 11.1372 113.546 10.9322 114.418 10.9322V14.622C113.41 14.5024 112.504 14.7074 111.702 15.2369C110.916 15.7665 110.523 16.6462 110.523 17.8761V24H107.217V11.1885H110.523V13.3921ZM125.1 11.1885H128.405V24H125.1V22.4882C124.109 23.7352 122.717 24.3587 120.923 24.3587C119.215 24.3587 117.746 23.7096 116.516 22.4114C115.303 21.0961 114.697 19.4903 114.697 17.5942C114.697 15.6981 115.303 14.101 116.516 12.8027C117.746 11.4874 119.215 10.8298 120.923 10.8298C122.717 10.8298 124.109 11.4532 125.1 12.7002V11.1885ZM119.001 20.2078C119.667 20.874 120.513 21.2071 121.538 21.2071C122.563 21.2071 123.408 20.874 124.075 20.2078C124.758 19.5245 125.1 18.6533 125.1 17.5942C125.1 16.5352 124.758 15.6725 124.075 15.0063C123.408 14.323 122.563 13.9814 121.538 13.9814C120.513 13.9814 119.667 14.323 119.001 15.0063C118.335 15.6725 118.002 16.5352 118.002 17.5942C118.002 18.6533 118.335 19.5245 119.001 20.2078Z" fill="white"/>
</svg>
