<svg width="214" height="31" viewBox="0 0 214 31" fill="none" xmlns="http://www.w3.org/2000/svg">
<rect x="13.1549" y="3.00732" width="4.13418" height="18.6038" transform="rotate(45 13.1549 3.00732)" fill="white"/>
<rect x="0.000335693" y="16.1621" width="4.13418" height="18.6038" transform="rotate(-45 0.000335693 16.1621)" fill="white"/>
<path fill-rule="evenodd" clip-rule="evenodd" d="M22.9935 30.3285L8.82925 16.1642L22.9935 2L24.1729 3.17939L21.4218 5.93044L31.6534 16.162L21.4218 26.3936L24.1751 29.1469L22.9935 30.3285Z" fill="white"/>
<path d="M26.9516 3.00708L24.0283 5.93039L37.1832 19.0853L40.1065 16.162L26.9516 3.00708Z" fill="white"/>
<path d="M40.1065 16.162L37.1832 13.2387L24.0283 26.3935L26.9516 29.3168L40.1065 16.162Z" fill="white"/>
<path d="M140.448 6.08C142.052 6.08 143.392 6.6176 144.467 7.6928C145.542 8.768 146.08 10.1077 146.08 11.712C146.08 13.3163 145.542 14.656 144.467 15.7312C143.392 16.8064 142.052 17.344 140.448 17.344H135.84V24H134.048V6.08H140.448ZM140.448 15.6544C141.557 15.6544 142.47 15.2875 143.187 14.5536C143.921 13.8027 144.288 12.8555 144.288 11.712C144.288 10.5685 143.921 9.62986 143.187 8.896C142.47 8.14506 141.557 7.7696 140.448 7.7696H135.84V15.6544H140.448ZM149.82 13.3248C150.605 11.7717 151.953 10.9952 153.864 10.9952V12.6336C152.704 12.6336 151.74 12.9749 150.972 13.6576C150.204 14.3403 149.82 15.4155 149.82 16.8832V24H148.13V11.2H149.82V13.3248ZM165.619 22.3872C164.322 23.6672 162.735 24.3072 160.858 24.3072C158.98 24.3072 157.385 23.6672 156.071 22.3872C154.774 21.0901 154.125 19.4944 154.125 17.6C154.125 15.7056 154.774 14.1184 156.071 12.8384C157.385 11.5413 158.98 10.8928 160.858 10.8928C162.735 10.8928 164.322 11.5413 165.619 12.8384C166.934 14.1184 167.591 15.7056 167.591 17.6C167.591 19.4944 166.934 21.0901 165.619 22.3872ZM157.274 21.2096C158.247 22.1824 159.441 22.6688 160.858 22.6688C162.274 22.6688 163.469 22.1824 164.442 21.2096C165.415 20.2197 165.901 19.0165 165.901 17.6C165.901 16.1835 165.415 14.9888 164.442 14.016C163.469 13.0261 162.274 12.5312 160.858 12.5312C159.441 12.5312 158.247 13.0261 157.274 14.016C156.301 14.9888 155.815 16.1835 155.815 17.6C155.815 19.0165 156.301 20.2197 157.274 21.2096ZM176.44 12.8384H172.754V20.5952C172.754 21.2949 172.89 21.7984 173.163 22.1056C173.436 22.3957 173.846 22.5493 174.392 22.5664C174.938 22.5664 175.621 22.5493 176.44 22.5152V24C174.648 24.2731 173.3 24.1451 172.395 23.616C171.508 23.0869 171.064 22.08 171.064 20.5952V12.8384H168.376V11.2H171.064V8.128L172.754 7.616V11.2H176.44V12.8384ZM183.883 10.8928C185.777 10.8928 187.304 11.5669 188.465 12.9152C189.643 14.2464 190.231 15.8251 190.231 17.6512C190.231 17.8389 190.214 18.1035 190.18 18.4448H178.942C179.112 19.7419 179.659 20.7744 180.58 21.5424C181.519 22.2933 182.671 22.6688 184.036 22.6688C185.009 22.6688 185.845 22.4725 186.545 22.08C187.262 21.6704 187.799 21.1413 188.158 20.4928L189.643 21.3632C189.079 22.2677 188.311 22.9845 187.339 23.5136C186.366 24.0427 185.256 24.3072 184.011 24.3072C181.997 24.3072 180.358 23.6757 179.095 22.4128C177.832 21.1499 177.201 19.5456 177.201 17.6C177.201 15.6885 177.824 14.0928 179.07 12.8128C180.316 11.5328 181.92 10.8928 183.883 10.8928ZM183.883 12.5312C182.551 12.5312 181.434 12.9323 180.529 13.7344C179.642 14.5195 179.112 15.5435 178.942 16.8064H188.491C188.32 15.4581 187.799 14.4085 186.929 13.6576C186.059 12.9067 185.043 12.5312 183.883 12.5312ZM198.372 24.3072C196.443 24.3072 194.839 23.6672 193.559 22.3872C192.279 21.0901 191.639 19.4944 191.639 17.6C191.639 15.7056 192.279 14.1184 193.559 12.8384C194.839 11.5413 196.443 10.8928 198.372 10.8928C199.635 10.8928 200.77 11.2 201.777 11.8144C202.784 12.4117 203.517 13.2224 203.978 14.2464L202.596 15.04C202.254 14.272 201.7 13.6661 200.932 13.2224C200.181 12.7616 199.328 12.5312 198.372 12.5312C196.955 12.5312 195.761 13.0261 194.788 14.016C193.815 14.9888 193.329 16.1835 193.329 17.6C193.329 19.0165 193.815 20.2197 194.788 21.2096C195.761 22.1824 196.955 22.6688 198.372 22.6688C199.328 22.6688 200.181 22.4469 200.932 22.0032C201.683 21.5424 202.272 20.928 202.698 20.16L204.106 20.9792C203.577 22.0032 202.801 22.8139 201.777 23.4112C200.753 24.0085 199.618 24.3072 198.372 24.3072ZM212.804 12.8384H209.118V20.5952C209.118 21.2949 209.254 21.7984 209.527 22.1056C209.8 22.3957 210.21 22.5493 210.756 22.5664C211.302 22.5664 211.985 22.5493 212.804 22.5152V24C211.012 24.2731 209.664 24.1451 208.759 23.616C207.872 23.0869 207.428 22.08 207.428 20.5952V12.8384H204.74V11.2H207.428V8.128L209.118 7.616V11.2H212.804V12.8384Z" fill="white"/>
<path d="M62.6672 24H58.5968L52.1968 15.6032V24H48.664V6.08H52.1968V13.9904L58.3408 6.08H62.4112L55.7808 14.784L62.6672 24ZM71.6964 11.2H74.9988V24H71.6964V22.5664C70.8943 23.7611 69.6228 24.3584 67.882 24.3584C66.4825 24.3584 65.322 23.8891 64.4004 22.9504C63.4959 22.0117 63.0436 20.7147 63.0436 19.0592V11.2H66.346V18.6496C66.346 19.5029 66.5764 20.16 67.0372 20.6208C67.498 21.0645 68.1124 21.2864 68.8804 21.2864C69.7337 21.2864 70.4164 21.0219 70.9284 20.4928C71.4404 19.9637 71.6964 19.1701 71.6964 18.112V11.2ZM84.961 10.8416C86.6847 10.8416 88.1525 11.4987 89.3642 12.8128C90.593 14.1099 91.2074 15.7056 91.2074 17.6C91.2074 19.4944 90.593 21.0987 89.3642 22.4128C88.1525 23.7099 86.6847 24.3584 84.961 24.3584C83.169 24.3584 81.7866 23.7355 80.8138 22.4896V24H77.5114V6.08H80.8138V12.7104C81.7866 11.4645 83.169 10.8416 84.961 10.8416ZM81.8122 20.2112C82.4778 20.8768 83.3226 21.2096 84.3466 21.2096C85.3706 21.2096 86.2154 20.8768 86.881 20.2112C87.5637 19.5285 87.905 18.6581 87.905 17.6C87.905 16.5419 87.5637 15.68 86.881 15.0144C86.2154 14.3317 85.3706 13.9904 84.3466 13.9904C83.3226 13.9904 82.4778 14.3317 81.8122 15.0144C81.1466 15.68 80.8138 16.5419 80.8138 17.6C80.8138 18.6581 81.1466 19.5285 81.8122 20.2112ZM95.8148 18.9568C96.2585 20.5611 97.4617 21.3632 99.4244 21.3632C100.687 21.3632 101.643 20.9365 102.292 20.0832L104.954 21.6192C103.691 23.4453 101.831 24.3584 99.3732 24.3584C97.2569 24.3584 95.5588 23.7184 94.2788 22.4384C92.9988 21.1584 92.3588 19.5456 92.3588 17.6C92.3588 15.6715 92.9903 14.0672 94.2532 12.7872C95.5161 11.4901 97.1375 10.8416 99.1172 10.8416C100.995 10.8416 102.539 11.4901 103.751 12.7872C104.98 14.0843 105.594 15.6885 105.594 17.6C105.594 18.0267 105.551 18.4789 105.466 18.9568H95.8148ZM95.7636 16.3968H102.292C102.104 15.5264 101.711 14.8779 101.114 14.4512C100.534 14.0245 99.8681 13.8112 99.1172 13.8112C98.2297 13.8112 97.4959 14.0416 96.9156 14.5024C96.3353 14.9461 95.9513 15.5776 95.7636 16.3968ZM110.69 13.4016C110.997 12.5824 111.5 11.968 112.2 11.5584C112.917 11.1488 113.711 10.944 114.581 10.944V14.6304C113.574 14.5109 112.67 14.7157 111.867 15.2448C111.082 15.7739 110.69 16.6528 110.69 17.8816V24H107.387V11.2H110.69V13.4016ZM125.253 11.2H128.556V24H125.253V22.4896C124.264 23.7355 122.873 24.3584 121.081 24.3584C119.374 24.3584 117.906 23.7099 116.677 22.4128C115.466 21.0987 114.86 19.4944 114.86 17.6C114.86 15.7056 115.466 14.1099 116.677 12.8128C117.906 11.4987 119.374 10.8416 121.081 10.8416C122.873 10.8416 124.264 11.4645 125.253 12.7104V11.2ZM119.161 20.2112C119.826 20.8768 120.671 21.2096 121.695 21.2096C122.719 21.2096 123.564 20.8768 124.229 20.2112C124.912 19.5285 125.253 18.6581 125.253 17.6C125.253 16.5419 124.912 15.68 124.229 15.0144C123.564 14.3317 122.719 13.9904 121.695 13.9904C120.671 13.9904 119.826 14.3317 119.161 15.0144C118.495 15.68 118.162 16.5419 118.162 17.6C118.162 18.6581 118.495 19.5285 119.161 20.2112Z" fill="white"/>
</svg>
