<svg width="205.00000000000003" height="31.000000000000004" xmlns="http://www.w3.org/2000/svg">
 <defs>
  <filter height="200%" width="200%" y="-50%" x="-50%" id="svg_8_blur">
   <feGaussianBlur stdDeviation="5.3" in="SourceGraphic"/>
  </filter>
 </defs>
 <g>
  <title>background</title>
  <rect fill="none" id="canvas_background" height="33" width="207" y="-1" x="-1"/>
 </g>
 <g>
  <title>Layer 1</title>
  <rect id="svg_1" fill="white" transform="rotate(45 13.1549 3.00732)" height="18.6038" width="4.13418" y="3.00732" x="13.1549"/>
  <rect id="svg_2" fill="white" transform="rotate(-45 0.000335693 16.1621)" height="18.6038" width="4.13418" y="16.1621" x="0.00034"/>
  <path id="svg_3" fill="white" d="m22.9935,30.3285l-14.16425,-14.1643l14.16425,-14.1642l1.1794,1.17939l-2.7511,2.75105l10.2316,10.23156l-10.2316,10.2316l2.7533,2.7533l-1.1816,1.1816z" clip-rule="evenodd" fill-rule="evenodd"/>
  <path id="svg_4" fill="white" d="m26.9516,3.00708l-2.9233,2.92331l13.1549,13.15491l2.9233,-2.9233l-13.1549,-13.15492z"/>
  <path id="svg_5" fill="white" d="m40.1065,16.162l-2.9233,-2.9233l-13.1549,13.1548l2.9233,2.9233l13.1549,-13.1548z"/>
  <path id="svg_7" fill="white" d="m62.6672,24l-4.0704,0l-6.4,-8.3968l0,8.3968l-3.5328,0l0,-17.92l3.5328,0l0,7.9104l6.144,-7.9104l4.0704,0l-6.6304,8.704l6.8864,9.216zm9.0292,-12.8l3.3024,0l0,12.8l-3.3024,0l0,-1.4336c-0.8021,1.1947 -2.0736,1.792 -3.8144,1.792c-1.3995,0 -2.56,-0.4693 -3.4816,-1.408c-0.9045,-0.9387 -1.3568,-2.2357 -1.3568,-3.8912l0,-7.8592l3.3024,0l0,7.4496c0,0.8533 0.2304,1.5104 0.6912,1.9712c0.4608,0.4437 1.0752,0.6656 1.8432,0.6656c0.8533,0 1.536,-0.2645 2.048,-0.7936c0.512,-0.5291 0.768,-1.3227 0.768,-2.3808l0,-6.912zm13.2646,-0.3584c1.7237,0 3.1915,0.6571 4.4032,1.9712c1.2288,1.2971 1.8432,2.8928 1.8432,4.7872c0,1.8944 -0.6144,3.4987 -1.8432,4.8128c-1.2117,1.2971 -2.6795,1.9456 -4.4032,1.9456c-1.792,0 -3.1744,-0.6229 -4.1472,-1.8688l0,1.5104l-3.3024,0l0,-17.92l3.3024,0l0,6.6304c0.9728,-1.2459 2.3552,-1.8688 4.1472,-1.8688zm-3.1488,9.3696c0.6656,0.6656 1.5104,0.9984 2.5344,0.9984c1.024,0 1.8688,-0.3328 2.5344,-0.9984c0.6827,-0.6827 1.024,-1.5531 1.024,-2.6112c0,-1.0581 -0.3413,-1.92 -1.024,-2.5856c-0.6656,-0.6827 -1.5104,-1.024 -2.5344,-1.024c-1.024,0 -1.8688,0.3413 -2.5344,1.024c-0.6656,0.6656 -0.9984,1.5275 -0.9984,2.5856c0,1.0581 0.3328,1.9285 0.9984,2.6112zm14.0026,-1.2544c0.4437,1.6043 1.6469,2.4064 3.6096,2.4064c1.2626,0 2.2186,-0.4267 2.8676,-1.28l2.662,1.536c-1.263,1.8261 -3.123,2.7392 -5.5808,2.7392c-2.1163,0 -3.8144,-0.64 -5.0944,-1.92c-1.28,-1.28 -1.92,-2.8928 -1.92,-4.8384c0,-1.9285 0.6315,-3.5328 1.8944,-4.8128c1.2629,-1.2971 2.8843,-1.9456 4.864,-1.9456c1.8778,0 3.4218,0.6485 4.6338,1.9456c1.229,1.2971 1.843,2.9013 1.843,4.8128c0,0.4267 -0.043,0.8789 -0.128,1.3568l-9.6512,0zm-0.0512,-2.56l6.5284,0c-0.188,-0.8704 -0.581,-1.5189 -1.178,-1.9456c-0.58,-0.4267 -1.2459,-0.64 -1.9968,-0.64c-0.8875,0 -1.6213,0.2304 -2.2016,0.6912c-0.5803,0.4437 -0.9643,1.0752 -1.152,1.8944zm14.9264,-2.9952c0.307,-0.8192 0.81,-1.4336 1.51,-1.8432c0.717,-0.4096 1.511,-0.6144 2.381,-0.6144l0,3.6864c-1.007,-0.1195 -1.911,0.0853 -2.714,0.6144c-0.785,0.5291 -1.177,1.408 -1.177,2.6368l0,6.1184l-3.303,0l0,-12.8l3.303,0l0,2.2016zm14.563,-2.2016l3.303,0l0,12.8l-3.303,0l0,-1.5104c-0.989,1.2459 -2.38,1.8688 -4.172,1.8688c-1.707,0 -3.175,-0.6485 -4.404,-1.9456c-1.211,-1.3141 -1.817,-2.9184 -1.817,-4.8128c0,-1.8944 0.606,-3.4901 1.817,-4.7872c1.229,-1.3141 2.697,-1.9712 4.404,-1.9712c1.792,0 3.183,0.6229 4.172,1.8688l0,-1.5104zm-6.092,9.0112c0.665,0.6656 1.51,0.9984 2.534,0.9984c1.024,0 1.869,-0.3328 2.534,-0.9984c0.683,-0.6827 1.024,-1.5531 1.024,-2.6112c0,-1.0581 -0.341,-1.92 -1.024,-2.5856c-0.665,-0.6827 -1.51,-1.024 -2.534,-1.024c-1.024,0 -1.869,0.3413 -2.534,1.024c-0.666,0.6656 -0.999,1.5275 -0.999,2.5856c0,1.0581 0.333,1.9285 0.999,2.6112z"/>
  <path filter="url(#svg_8_blur)" id="svg_8" fill="white" d="m138.40166,6.08c1.6043,0 2.944,0.5376 4.0192,1.6128c1.0752,1.0752 1.6128,2.4149 1.6128,4.0192c0,1.6043 -0.5376,2.944 -1.6128,4.0192c-1.0752,1.0752 -2.4149,1.6128 -4.0192,1.6128l-4.608,0l0,6.656l-1.792,0l0,-17.92l6.4,0zm0,9.5744c1.10933,0 2.0224,-0.3669 2.7392,-1.1008c0.7339,-0.7509 1.1008,-1.6981 1.1008,-2.8416c0,-1.1435 -0.3669,-2.08214 -1.1008,-2.816c-0.7168,-0.75094 -1.62987,-1.1264 -2.7392,-1.1264l-4.608,0l0,7.8848l4.608,0zm9.3716,-2.3296c0.7851,-1.5531 2.1333,-2.3296 4.0448,-2.3296l0,1.6384c-1.1605,0 -2.1248,0.3413 -2.8928,1.024c-0.768,0.6827 -1.152,1.7579 -1.152,3.2256l0,7.1168l-1.6896,0l0,-12.8l1.6896,0l0,2.1248zm15.7998,9.0624c-1.2971,1.28 -2.8843,1.92 -4.7616,1.92c-1.8773,0 -3.4731,-0.64 -4.7872,-1.92c-1.2971,-1.2971 -1.9456,-2.8928 -1.9456,-4.7872c0,-1.8944 0.6485,-3.4816 1.9456,-4.7616c1.3141,-1.2971 2.9099,-1.9456 4.7872,-1.9456c1.8773,0 3.4645,0.6485 4.7616,1.9456c1.3141,1.28 1.9712,2.8672 1.9712,4.7616c0,1.8944 -0.6571,3.4901 -1.9712,4.7872zm-8.3456,-1.1776c0.9728,0.9728 2.1675,1.4592 3.584,1.4592c1.4165,0 2.6112,-0.4864 3.584,-1.4592c0.9728,-0.9899 1.4592,-2.1931 1.4592,-3.6096c0,-1.4165 -0.4864,-2.6112 -1.4592,-3.584c-0.9728,-0.9899 -2.1675,-1.4848 -3.584,-1.4848c-1.4165,0 -2.6112,0.4949 -3.584,1.4848c-0.9728,0.9728 -1.4592,2.1675 -1.4592,3.584c0,1.4165 0.4864,2.6197 1.4592,3.6096zm19.493,-10.3168c1.8261,0 3.3792,0.6485 4.6592,1.9456c1.2971,1.2971 1.9456,2.8843 1.9456,4.7616c0,1.8773 -0.6485,3.4645 -1.9456,4.7616c-1.28,1.2971 -2.8331,1.9456 -4.6592,1.9456c-2.2699,0 -3.9936,-0.9387 -5.1712,-2.816l0,7.6288l-1.6896,0l0,-17.92l1.6896,0l0,2.5088c1.1776,-1.8773 2.9013,-2.816 5.1712,-2.816zm-3.712,10.3168c0.9728,0.9728 2.1675,1.4592 3.584,1.4592c1.4165,0 2.6112,-0.4864 3.584,-1.4592c0.9728,-0.9899 1.4592,-2.1931 1.4592,-3.6096c0,-1.4165 -0.4864,-2.6112 -1.4592,-3.584c-0.9728,-0.9899 -2.1675,-1.4848 -3.584,-1.4848c-1.4165,0 -2.6112,0.4949 -3.584,1.4848c-0.9728,0.9728 -1.4592,2.1675 -1.4592,3.584c0,1.4165 0.4864,2.6197 1.4592,3.6096zm18.5278,-10.3168c1.8944,0 3.4219,0.6741 4.5824,2.0224c1.1776,1.3312 1.7664,2.9099 1.7664,4.736c0,0.1877 -0.0171,0.4523 -0.0512,0.7936l-11.2384,0c0.1707,1.2971 0.7168,2.3296 1.6384,3.0976c0.9387,0.7509 2.0907,1.1264 3.456,1.1264c0.9728,0 1.8091,-0.1963 2.5088,-0.5888c0.7168,-0.4096 1.2544,-0.9387 1.6128,-1.5872l1.4848,0.8704c-0.5632,0.9045 -1.3312,1.6213 -2.304,2.1504c-0.9728,0.5291 -2.0821,0.7936 -3.328,0.7936c-2.0139,0 -3.6523,-0.6315 -4.9152,-1.8944c-1.2629,-1.2629 -1.8944,-2.8672 -1.8944,-4.8128c0,-1.9115 0.6229,-3.5072 1.8688,-4.7872c1.2459,-1.28 2.8501,-1.92 4.8128,-1.92zm0,1.6384c-1.3312,0 -2.4491,0.4011 -3.3536,1.2032c-0.8875,0.7851 -1.4165,1.8091 -1.5872,3.072l9.5488,0c-0.1707,-1.3483 -0.6912,-2.3979 -1.5616,-3.1488c-0.8704,-0.7509 -1.8859,-1.1264 -3.0464,-1.1264zm8.5244,11.4688l0,-18.688l1.6896,0l0,18.688l-1.6896,0z"/>
  <path id="svg_9" fill="white" d="m140.40875,6.08c1.6043,0 2.944,0.5376 4.0192,1.6128c1.0752,1.0752 1.6128,2.4149 1.6128,4.0192c0,1.6043 -0.5376,2.944 -1.6128,4.0192c-1.0752,1.0752 -2.4149,1.6128 -4.0192,1.6128l-4.608,0l0,6.656l-1.792,0l0,-17.92l6.4,0zm0,9.5744c1.10933,0 2.0224,-0.3669 2.7392,-1.1008c0.7339,-0.7509 1.1008,-1.6981 1.1008,-2.8416c0,-1.1435 -0.3669,-2.08214 -1.1008,-2.816c-0.7168,-0.75094 -1.62987,-1.1264 -2.7392,-1.1264l-4.608,0l0,7.8848l4.608,0zm9.3716,-2.3296c0.7851,-1.5531 2.1333,-2.3296 4.0448,-2.3296l0,1.6384c-1.1605,0 -2.1248,0.3413 -2.8928,1.024c-0.768,0.6827 -1.152,1.7579 -1.152,3.2256l0,7.1168l-1.6896,0l0,-12.8l1.6896,0l0,2.1248zm15.7998,9.0624c-1.2971,1.28 -2.8843,1.92 -4.7616,1.92c-1.8773,0 -3.4731,-0.64 -4.7872,-1.92c-1.2971,-1.2971 -1.9456,-2.8928 -1.9456,-4.7872c0,-1.8944 0.6485,-3.4816 1.9456,-4.7616c1.3141,-1.2971 2.9099,-1.9456 4.7872,-1.9456c1.8773,0 3.4645,0.6485 4.7616,1.9456c1.3141,1.28 1.9712,2.8672 1.9712,4.7616c0,1.8944 -0.6571,3.4901 -1.9712,4.7872zm-8.3456,-1.1776c0.9728,0.9728 2.1675,1.4592 3.584,1.4592c1.4165,0 2.6112,-0.4864 3.584,-1.4592c0.9728,-0.9899 1.4592,-2.1931 1.4592,-3.6096c0,-1.4165 -0.4864,-2.6112 -1.4592,-3.584c-0.9728,-0.9899 -2.1675,-1.4848 -3.584,-1.4848c-1.4165,0 -2.6112,0.4949 -3.584,1.4848c-0.9728,0.9728 -1.4592,2.1675 -1.4592,3.584c0,1.4165 0.4864,2.6197 1.4592,3.6096zm19.493,-10.3168c1.8261,0 3.3792,0.6485 4.6592,1.9456c1.2971,1.2971 1.9456,2.8843 1.9456,4.7616c0,1.8773 -0.6485,3.4645 -1.9456,4.7616c-1.28,1.2971 -2.8331,1.9456 -4.6592,1.9456c-2.2699,0 -3.9936,-0.9387 -5.1712,-2.816l0,7.6288l-1.6896,0l0,-17.92l1.6896,0l0,2.5088c1.1776,-1.8773 2.9013,-2.816 5.1712,-2.816zm-3.712,10.3168c0.9728,0.9728 2.1675,1.4592 3.584,1.4592c1.4165,0 2.6112,-0.4864 3.584,-1.4592c0.9728,-0.9899 1.4592,-2.1931 1.4592,-3.6096c0,-1.4165 -0.4864,-2.6112 -1.4592,-3.584c-0.9728,-0.9899 -2.1675,-1.4848 -3.584,-1.4848c-1.4165,0 -2.6112,0.4949 -3.584,1.4848c-0.9728,0.9728 -1.4592,2.1675 -1.4592,3.584c0,1.4165 0.4864,2.6197 1.4592,3.6096zm18.5278,-10.3168c1.8944,0 3.4219,0.6741 4.5824,2.0224c1.1776,1.3312 1.7664,2.9099 1.7664,4.736c0,0.1877 -0.0171,0.4523 -0.0512,0.7936l-11.2384,0c0.1707,1.2971 0.7168,2.3296 1.6384,3.0976c0.9387,0.7509 2.0907,1.1264 3.456,1.1264c0.9728,0 1.8091,-0.1963 2.5088,-0.5888c0.7168,-0.4096 1.2544,-0.9387 1.6128,-1.5872l1.4848,0.8704c-0.5632,0.9045 -1.3312,1.6213 -2.304,2.1504c-0.9728,0.5291 -2.0821,0.7936 -3.328,0.7936c-2.0139,0 -3.6523,-0.6315 -4.9152,-1.8944c-1.2629,-1.2629 -1.8944,-2.8672 -1.8944,-4.8128c0,-1.9115 0.6229,-3.5072 1.8688,-4.7872c1.2459,-1.28 2.8501,-1.92 4.8128,-1.92zm0,1.6384c-1.3312,0 -2.4491,0.4011 -3.3536,1.2032c-0.8875,0.7851 -1.4165,1.8091 -1.5872,3.072l9.5488,0c-0.1707,-1.3483 -0.6912,-2.3979 -1.5616,-3.1488c-0.8704,-0.7509 -1.8859,-1.1264 -3.0464,-1.1264zm8.5244,11.4688l0,-18.688l1.6896,0l0,18.688l-1.6896,0z"/>
 </g>
</svg>